<svg width="16" height="16" viewBox="0 0 16 16" fill="none" xmlns="http://www.w3.org/2000/svg">
<path fill-rule="evenodd" clip-rule="evenodd" d="M3 3C3 1.89543 3.89543 1 5 1H8.58579C8.98361 1 9.36514 1.15804 9.64645 1.43934L12.5607 4.35355C12.842 4.63486 13 5.01639 13 5.41421V13C13 14.1046 12.1046 15 11 15H5C3.89543 15 3 14.1046 3 13V11H4V11.4997C4 11.4998 4 11.4996 4 11.4997C3.99985 11.5118 3.99985 11.5242 4 11.5362V13C4 13.5523 4.44772 14 5 14H11C11.5523 14 12 13.5523 12 13V6H9.5C8.67157 6 8 5.32843 8 4.5V2H5C4.44772 2 4 2.44772 4 3V7.49978V8.00001H3V3ZM9.5 5H11.7929L9 2.20711V4.5C9 4.77614 9.22386 5 9.5 5Z" fill="#F64B7B"/>
<path d="M7.85 9.84997L5.85 11.85C5.80488 11.8974 5.75059 11.9352 5.69042 11.961C5.63026 11.9868 5.56547 12.0001 5.5 12.0001C5.43453 12.0001 5.36974 11.9868 5.30958 11.961C5.24941 11.9352 5.19512 11.8974 5.15 11.85C5.10256 11.8049 5.06478 11.7506 5.03897 11.6904C5.01316 11.6302 4.99985 11.5654 4.99985 11.5C4.99985 11.4345 5.01316 11.3697 5.03897 11.3095C5.06478 11.2494 5.10256 11.1951 5.15 11.15L6.29 9.99997L1.5 9.99997C1.36739 9.99997 1.24021 9.94729 1.14645 9.85353C1.05268 9.75976 1 9.63258 1 9.49997C1 9.36736 1.05268 9.24019 1.14645 9.14642C1.24021 9.05265 1.36739 8.99997 1.5 8.99997L6.29 8.99997L5.15 7.84997C5.05872 7.75683 5.00788 7.63142 5.00854 7.50101C5.0092 7.37059 5.0613 7.24571 5.15352 7.15349C5.24574 7.06127 5.37062 7.00917 5.50104 7.00851C5.63145 7.00786 5.75685 7.05869 5.85 7.14997L7.85 9.14997C7.89744 9.19509 7.93522 9.24938 7.96103 9.30955C7.98684 9.36971 8.00015 9.4345 8.00015 9.49997C8.00015 9.56544 7.98684 9.63023 7.96103 9.6904C7.93522 9.75056 7.89744 9.80485 7.85 9.84997V9.84997Z" fill="#F64B7B"/>
</svg>
